<svg width="1204" height="1204" viewBox="0 0 1204 1204" fill="none" xmlns="http://www.w3.org/2000/svg">
<g filter="url(#filter0_bd_18_2)">
<path fill-rule="evenodd" clip-rule="evenodd" d="M143.21 140.82C140.449 140.82 138.21 143.058 138.21 145.82V1058.46C138.21 1061.22 140.449 1063.46 143.21 1063.46H994.002C996.561 1063.46 998.708 1061.52 998.975 1058.98L1059.37 483.183C1059.86 478.498 1054.2 475.795 1050.86 479.126L1009.8 520.186C1006.34 523.65 1000.48 520.581 1001.35 515.76L1068.09 146.71C1068.65 143.642 1066.29 140.82 1063.17 140.82H143.21ZM246.934 244.03C244.172 244.03 241.934 246.268 241.934 249.03V955.245C241.934 958.006 244.172 960.245 246.934 960.245H930.85C933.484 960.245 935.666 958.202 935.84 955.574L957.334 629.581C957.63 625.092 952.309 622.526 948.981 625.553L906.615 664.078C903.341 667.055 898.098 664.625 898.254 660.203L912.732 249.206C912.832 246.377 910.565 244.03 907.735 244.03H246.934Z" fill="url(#paint0_linear_18_2)"/>
</g>
<g opacity="0.7" filter="url(#filter1_d_18_2)">
<path d="M329.649 902.197C335.265 902.197 340.27 901.221 344.664 899.268C349.059 897.314 352.843 894.507 356.017 890.845C359.19 887.183 361.632 882.788 363.341 877.661C365.05 872.534 365.904 866.675 365.904 860.083V765.601H341.002V863.013C341.002 866.431 340.514 869.36 339.537 871.802C338.561 873.999 337.218 875.708 335.509 876.929C334.044 877.905 332.091 878.394 329.649 878.394C327.452 878.394 325.499 877.905 323.79 876.929C322.081 875.708 320.738 873.999 319.762 871.802C318.785 869.36 318.297 866.431 318.297 863.013V555.762C318.297 552.588 318.785 549.902 319.762 547.705C320.738 545.264 322.081 543.555 323.79 542.578C325.499 541.357 327.452 540.747 329.649 540.747C332.091 540.747 334.044 541.357 335.509 542.578C337.218 543.555 338.561 545.264 339.537 547.705C340.514 549.902 341.002 552.588 341.002 555.762V716.528L352.354 698.584H305.846V720.19H365.904V558.325C365.904 549.78 364.439 542.456 361.51 536.353C358.58 530.005 354.308 525.244 348.692 522.07C343.321 518.652 336.974 516.943 329.649 516.943C322.325 516.943 315.978 518.652 310.606 522.07C305.235 525.244 300.963 529.883 297.789 535.986C294.615 542.09 293.028 549.536 293.028 558.325V860.083C293.028 868.872 294.615 876.44 297.789 882.788C300.963 888.892 305.235 893.652 310.606 897.07C315.978 900.488 322.325 902.197 329.649 902.197Z" fill="url(#paint1_linear_18_2)" fill-opacity="0.8" shape-rendering="crispEdges"/>
</g>
<ellipse cx="848" cy="1030" rx="144" ry="27" fill="url(#paint2_linear_18_2)"/>
<ellipse cx="991.246" cy="929.127" rx="132.431" ry="13.8052" transform="rotate(95.6297 991.246 929.127)" fill="url(#paint3_linear_18_2)"/>
<g filter="url(#filter2_bd_18_2)">
<path fill-rule="evenodd" clip-rule="evenodd" d="M143.21 140.82C140.449 140.82 138.21 143.058 138.21 145.82V1058.46C138.21 1061.22 140.449 1063.46 143.21 1063.46H994.002C996.561 1063.46 998.708 1061.52 998.975 1058.98L1059.37 483.183C1059.86 478.498 1054.2 475.795 1050.86 479.126L1009.8 520.186C1006.34 523.65 1000.48 520.581 1001.35 515.76L1068.09 146.71C1068.65 143.642 1066.29 140.82 1063.17 140.82H143.21ZM246.934 244.03C244.172 244.03 241.934 246.268 241.934 249.03V955.245C241.934 958.006 244.172 960.245 246.934 960.245H930.85C933.484 960.245 935.666 958.202 935.84 955.574L957.334 629.581C957.63 625.092 952.309 622.526 948.981 625.553L906.615 664.078C903.341 667.055 898.098 664.625 898.254 660.203L912.732 249.206C912.832 246.377 910.565 244.03 907.735 244.03H246.934Z" fill="#273135" fill-opacity="0.2" shape-rendering="crispEdges"/>
</g>
<defs>
<filter id="filter0_bd_18_2" x="108.21" y="110.82" width="989.963" height="982.635" filterUnits="userSpaceOnUse" color-interpolation-filters="sRGB">
<feFlood flood-opacity="0" result="BackgroundImageFix"/>
<feGaussianBlur in="BackgroundImageFix" stdDeviation="15"/>
<feComposite in2="SourceAlpha" operator="in" result="effect1_backgroundBlur_18_2"/>
<feColorMatrix in="SourceAlpha" type="matrix" values="0 0 0 0 0 0 0 0 0 0 0 0 0 0 0 0 0 0 127 0" result="hardAlpha"/>
<feMorphology radius="1" operator="erode" in="SourceAlpha" result="effect2_dropShadow_18_2"/>
<feOffset dy="4"/>
<feGaussianBlur stdDeviation="12"/>
<feComposite in2="hardAlpha" operator="out"/>
<feColorMatrix type="matrix" values="0 0 0 0 0 0 0 0 0 0 0 0 0 0 0 0 0 0 0.2 0"/>
<feBlend mode="normal" in2="effect1_backgroundBlur_18_2" result="effect2_dropShadow_18_2"/>
<feBlend mode="normal" in="SourceGraphic" in2="effect2_dropShadow_18_2" result="shape"/>
</filter>
<filter id="filter1_d_18_2" x="289.028" y="516.943" width="80.876" height="393.254" filterUnits="userSpaceOnUse" color-interpolation-filters="sRGB">
<feFlood flood-opacity="0" result="BackgroundImageFix"/>
<feColorMatrix in="SourceAlpha" type="matrix" values="0 0 0 0 0 0 0 0 0 0 0 0 0 0 0 0 0 0 127 0" result="hardAlpha"/>
<feOffset dy="4"/>
<feGaussianBlur stdDeviation="2"/>
<feComposite in2="hardAlpha" operator="out"/>
<feColorMatrix type="matrix" values="0 0 0 0 0 0 0 0 0 0 0 0 0 0 0 0 0 0 0.25 0"/>
<feBlend mode="normal" in2="BackgroundImageFix" result="effect1_dropShadow_18_2"/>
<feBlend mode="normal" in="SourceGraphic" in2="effect1_dropShadow_18_2" result="shape"/>
</filter>
<filter id="filter2_bd_18_2" x="-61.79" y="-59.1802" width="1329.96" height="1322.64" filterUnits="userSpaceOnUse" color-interpolation-filters="sRGB">
<feFlood flood-opacity="0" result="BackgroundImageFix"/>
<feGaussianBlur in="BackgroundImageFix" stdDeviation="100"/>
<feComposite in2="SourceAlpha" operator="in" result="effect1_backgroundBlur_18_2"/>
<feColorMatrix in="SourceAlpha" type="matrix" values="0 0 0 0 0 0 0 0 0 0 0 0 0 0 0 0 0 0 127 0" result="hardAlpha"/>
<feOffset dy="4"/>
<feGaussianBlur stdDeviation="12"/>
<feComposite in2="hardAlpha" operator="out"/>
<feColorMatrix type="matrix" values="0 0 0 0 0 0 0 0 0 0 0 0 0 0 0 0 0 0 0.2 0"/>
<feBlend mode="normal" in2="effect1_backgroundBlur_18_2" result="effect2_dropShadow_18_2"/>
<feBlend mode="normal" in="SourceGraphic" in2="effect2_dropShadow_18_2" result="shape"/>
</filter>
<linearGradient id="paint0_linear_18_2" x1="-536.763" y1="483.241" x2="738.371" y2="450.131" gradientUnits="userSpaceOnUse">
<stop stop-color="#22A995"/>
<stop offset="1" stop-color="#05FFBE"/>
</linearGradient>
<linearGradient id="paint1_linear_18_2" x1="101.742" y1="474.505" x2="455.717" y2="471.59" gradientUnits="userSpaceOnUse">
<stop stop-color="#22A995"/>
<stop offset="1" stop-color="#05FFBE"/>
</linearGradient>
<linearGradient id="paint2_linear_18_2" x1="848" y1="1030" x2="875.353" y2="1136.16" gradientUnits="userSpaceOnUse">
<stop stop-color="#F5FE8C"/>
<stop offset="1" stop-color="#BEFF05" stop-opacity="0.39"/>
</linearGradient>
<linearGradient id="paint3_linear_18_2" x1="991.246" y1="929.127" x2="999.371" y2="985.849" gradientUnits="userSpaceOnUse">
<stop stop-color="#F5FE8C"/>
<stop offset="1" stop-color="#BEFF05" stop-opacity="0.39"/>
</linearGradient>
</defs>
</svg>
